<svg
  data-name="Layer 2"
  xmlns="http://www.w3.org/2000/svg"
  viewBox="0 0 334.95 317.98"
>
  <g data-name="Layer 2">
    <path
      d="M115.34 83.1c42.26-3.9 64.12-27.25 67.68-68.05 4.97 41.85 27.46 64.74 68.05 68.05-43.81 5.39-64.86 29.48-67.86 68.41-5.83-44.55-29.19-66.4-67.86-68.41ZM86.43 185.19c27.8-3.51 41.59-17.87 42.09-42.55 2.89 26.18 16.67 40.89 42.86 42.55-26.53 3.26-41.04 17.39-42.48 43.33-2.01-26.75-16.73-40.63-42.48-43.33Z"
    />
    <path
      d="M43.56 216.19c68.88 74.82 203.14 57.52 247.07 0-59.43 36.31-178.52 38.92-247.07 0Z"
    />
    <path
      d="M135.82 107.51c-231.5 30.26-131.38 210.48 35.56 210.48 129.48-2.63 265.04-157.15 53.06-206.91-8.36 4.74-14.21 12.41-17.46 23.09 188.75 26.46 78.75 158.96-44.06 158.96-108.22 0-244.64-143.78-4.01-161.03-3.19-10.59-10.88-18.79-23.09-24.6ZM121.03 47.41C93.1 46.57 77.05 31.07 73.62 0c-2.24 28.56-17.69 44.7-47.41 47.41 27.85.48 42.77 17.41 47.41 47.41-.69-28.29 14.51-44.55 47.41-47.41Z"
    />
  </g>
</svg>
